<?xml version="1.0" encoding="UTF-8" standalone="no"?>
<!-- Generator: Adobe Illustrator 16.0.0, SVG Export Plug-In . SVG Version: 6.00 Build 0)  -->

<svg
   xmlns:dc="http://purl.org/dc/elements/1.1/"
   xmlns:cc="http://creativecommons.org/ns#"
   xmlns:rdf="http://www.w3.org/1999/02/22-rdf-syntax-ns#"
   xmlns:svg="http://www.w3.org/2000/svg"
   xmlns="http://www.w3.org/2000/svg"
   xmlns:sodipodi="http://sodipodi.sourceforge.net/DTD/sodipodi-0.dtd"
   xmlns:inkscape="http://www.inkscape.org/namespaces/inkscape"
   version="1.1"
   id="Layer_1"
   x="0px"
   y="0px"
   width="399.83551"
   height="366.20523"
   viewBox="0 0 399.83551 366.20523"
   enable-background="new 0 0 612 792"
   xml:space="preserve"
   inkscape:version="0.91 r13725"
   sodipodi:docname="blacker.svg"
   inkscape:export-filename="/home/woot/Documents/squiffles/lib/img/blacker.png"
   inkscape:export-xdpi="90.040001"
   inkscape:export-ydpi="90.040001"><metadata
     id="metadata4431"><rdf:RDF><cc:Work
         rdf:about=""><dc:format>image/svg+xml</dc:format><dc:type
           rdf:resource="http://purl.org/dc/dcmitype/StillImage" /><dc:title></dc:title></cc:Work></rdf:RDF></metadata><defs
     id="defs4429" /><sodipodi:namedview
     pagecolor="#ffffff"
     bordercolor="#666666"
     borderopacity="1"
     objecttolerance="10"
     gridtolerance="10"
     guidetolerance="10"
     inkscape:pageopacity="0"
     inkscape:pageshadow="2"
     inkscape:window-width="1920"
     inkscape:window-height="1052"
     id="namedview4427"
     showgrid="false"
     inkscape:zoom="0.99994898"
     inkscape:cx="188.12223"
     inkscape:cy="185.86157"
     inkscape:window-x="1366"
     inkscape:window-y="0"
     inkscape:window-maximized="1"
     inkscape:current-layer="Layer_1"
     fit-margin-top="0"
     fit-margin-left="0"
     fit-margin-right="0"
     fit-margin-bottom="0" /><g
     id="g4471"
     transform="translate(-645.9705,-164.89865)"
     style="fill:#a6b8c1;fill-opacity:1"><path
       d="m 853.2305,489.47865 c 24.531,0.24 48.903,-1.243 73.045,-6.747 0,-2.364 0.021,-4.495 -0.004,-6.627 -0.08,-6.698 0.492,-13.329 2.397,-19.77 1.097,-3.711 2.15,-7.502 3.853,-10.944 1.229,-2.482 3.336,-4.608 5.324,-6.623 8.987,-9.1 19.993,-15.214 31.302,-20.851 2.339,-1.167 4.715,-2.271 7.127,-3.277 1.233,-0.516 1.656,-1.245 1.54,-2.551 -0.435,-4.821 -0.793,-9.65 -1.183,-14.476 -0.6,-7.433 -1.201,-14.869 -1.811,-22.301 -0.058,-0.708 -0.044,-1.452 -0.263,-2.112 -2.23,-6.694 2.402,-12.739 8.791,-14.459 3.739,-1.005 7.493,-2 11.142,-3.284 7.005,-2.461 13.36,-6.171 19.246,-10.678 0.481,-0.369 0.922,-0.904 1.16,-1.455 0.795,-1.847 2.29,-2.339 4.072,-2.153 1.236,0.13 2.446,0.491 3.646,0.743 -0.049,0.306 -0.035,0.465 -0.098,0.585 -0.888,1.714 -3.724,2.036 -3.205,4.833 0.356,1.926 0.25,3.936 0.366,6.186 1.094,-0.528 2.042,-1.011 3.012,-1.445 3.316,-1.487 6.67,-2.892 9.951,-4.451 2.933,-1.395 5.789,-2.948 8.675,-4.441 0.352,-0.18 0.673,-0.422 1.007,-0.634 0.88,-0.559 1.786,-0.685 2.654,-0.025 0.993,0.756 0.992,1.811 0.532,2.796 -0.804,1.722 -1.649,3.433 -2.628,5.058 -4.821,8.002 -11.524,14.271 -18.721,20.056 -7.618,6.122 -15.801,11.425 -24.177,16.439 -0.512,0.309 -0.94,0.759 -1.56,1.267 1.235,1.371 2.419,2.533 3.429,3.828 5.555,7.137 9.515,15.143 12.814,23.52 2.353,5.974 0.636,11.061 -3.365,15.583 -5.581,6.309 -12.313,11.179 -19.733,15.088 -4.057,2.138 -8.351,3.849 -12.33,6.113 -4.614,2.626 -9.042,5.585 -13.454,8.545 -0.997,0.669 -1.85,1.821 -2.327,2.938 -1.569,3.685 -2.364,7.404 -1.369,11.547 1.014,4.218 1.468,8.595 1.85,12.932 0.57,6.435 -0.203,12.831 -1.016,19.215 -0.198,1.553 -0.784,2.559 -2.136,3.412 -7.493,4.736 -15.56,8.175 -23.979,10.847 -9.396,2.983 -19.008,4.936 -28.765,6.296 -11.743,1.635 -23.565,1.968 -35.38,2.312 -13.809,0.404 -27.622,0.728 -41.435,0.784 -13.178,0.054 -26.356,-0.221 -39.486,-1.66 -14.152,-1.548 -28.127,-3.85 -41.458,-9.086 -4.438,-1.744 -8.681,-3.871 -12.479,-6.824 -1.468,-1.141 -2.325,-2.533 -2.683,-4.327 -1.038,-5.187 -0.986,-10.436 -0.763,-15.668 0.238,-5.547 0.56,-11.107 1.209,-16.619 0.687,-5.818 -1.507,-10.329 -5.399,-14.34 -3.593,-3.702 -7.885,-6.326 -12.485,-8.568 -4.909,-2.391 -9.803,-4.828 -14.589,-7.458 -4.307,-2.366 -8.42,-5.086 -12.689,-7.523 -4.76,-2.717 -6.97,-7.001 -7.728,-12.182 -0.97,-6.629 1.013,-12.714 3.754,-18.599 2.793,-5.996 6.46,-11.451 10.671,-16.547 0.192,-0.232 0.308,-0.529 0.616,-1.07 -0.792,-0.44 -1.502,-0.869 -2.241,-1.239 -13.045,-6.531 -25.282,-14.246 -35.708,-24.574 -4.012,-3.974 -7.692,-8.257 -10.298,-13.298 -1.398,-2.706 -2.348,-5.642 -3.5,-8.475 0.162,-0.122 0.325,-0.248 0.487,-0.373 0.864,0.6 1.73,1.197 2.591,1.798 3.772,2.634 7.747,4.841 11.974,6.728 4.544,2.028 8.791,4.723 13.168,7.124 0.266,0.146 0.539,0.277 1.227,0.63 -0.173,-4.396 -0.333,-8.502 -0.5,-12.736 1.193,-0.264 2.101,-0.582 3.02,-0.617 0.52,-0.02 1.226,0.293 1.559,0.696 3.114,3.751 7.152,6.226 11.409,8.405 6.522,3.34 13.414,5.7 20.458,7.65 0.84,0.232 1.69,0.45 2.499,0.769 3.913,1.532 7.329,4.926 6.88,10.239 -0.334,3.947 -0.434,7.919 -0.521,11.883 -0.212,9.603 -0.294,19.208 -0.574,28.808 -0.064,2.184 0.563,3.355 2.582,4.38 7.133,3.62 14.25,7.305 21.15,11.343 3.805,2.229 7.263,5.095 10.709,7.88 6.363,5.146 9.838,12.1 11.923,19.85 1.615,6 2.669,12.062 2.566,18.321 -0.043,2.671 0.432,5.351 0.697,8.295 25.06,5.151 50.252,6.382 76.272,5.764 -1.153,-1.332 -1.792,-2.432 -2.738,-3.099 -4.007,-2.834 -7.932,-5.852 -12.205,-8.228 -10.898,-6.061 -22.46,-10.666 -34.218,-14.786 -5.067,-1.773 -9.558,-4.658 -13.838,-7.792 -6.132,-4.489 -12.192,-9.098 -18.057,-13.931 -6.145,-5.062 -11.314,-11.091 -15.964,-17.553 -8.581,-11.93 -14.907,-25.022 -19.988,-38.755 -5.933,-16.035 -10.154,-32.518 -12.998,-49.365 -0.418,-2.479 -0.938,-4.938 -1.495,-7.843 -0.783,0.801 -1.28,1.27 -1.732,1.78 -5.616,6.284 -12.54,8.38 -20.626,6.144 -4.243,-1.174 -8.531,-1.709 -12.888,-2.08 -3.172,-0.271 -5.33,1.129 -7.057,3.509 -0.84,1.156 -1.458,2.622 -3.248,2.271 -1.77,-0.347 -1.891,-1.941 -2.187,-3.314 -0.517,-2.397 -1.046,-4.794 -1.435,-7.213 -0.482,-3.002 0.083,-5.88 1.62,-8.486 0.621,-1.055 0.333,-1.715 -0.292,-2.537 -2.584,-3.402 -4.002,-7.353 -5.226,-11.38 -0.205,-0.675 -0.302,-1.404 -0.318,-2.108 -0.04,-1.705 0.502,-2.415 2.139,-2.976 4.087,-1.398 8.103,-1.293 12.054,0.71 1.498,-2.94 2.948,-5.781 4.464,-8.756 -0.244,-0.161 -0.588,-0.501 -1.001,-0.648 -4.583,-1.631 -5.474,-6.739 -5.239,-9.982 0.081,-1.107 0.636,-1.879 1.668,-2.41 1.048,-0.543 2.049,-1.212 2.974,-1.945 2.025,-1.61 2.857,-3.705 2.305,-6.493 -0.685,-0.076 -1.364,-0.157 -2.046,-0.227 -3.824,-0.38 -6.743,-2.888 -7.583,-6.518 -0.466,-2.013 -0.024,-3.165 1.744,-3.871 5.892,-2.347 10.524,-6.394 14.908,-10.812 2.866,-2.888 5.186,-6.164 7.352,-9.594 3.827,-6.061 9.357,-9.827 16.34,-11.376 1.34,-0.299 1.645,-0.834 1.473,-2.112 -0.486,-3.607 -1.167,-7.224 -1.211,-10.845 -0.113,-9.062 1.539,-17.695 7.479,-24.985 4.59,-5.632 10.65,-8.789 17.578,-10.657 6.543,-1.761 12.926,-0.671 19.305,0.648 11.017,2.281 21.181,6.564 30.146,13.452 5.689,4.367 10.684,9.44 14.812,15.329 8.83,12.595 13.778,26.693 16.024,41.804 0.629,4.233 0.919,8.518 1.373,12.778 0.04,0.378 0.145,0.747 0.293,1.491 10.335,-5.913 19.195,-13.176 26.834,-22.229 9.847,7.019 18.988,15.021 30.348,20.088 0.148,-0.737 0.299,-1.169 0.312,-1.607 0.462,-13.626 3.365,-26.709 8.775,-39.224 3.813,-8.822 8.997,-16.771 15.775,-23.587 7.245,-7.286 15.744,-12.676 25.395,-16.318 7.78,-2.938 15.78,-4.825 24.048,-5.312 6.479,-0.378 12.573,1.47 18.196,4.663 9.002,5.114 13.699,13.118 15.212,23.186 0.981,6.522 0.374,12.98 -0.767,19.417 -0.052,0.299 -0.077,0.602 -0.136,1.047 0.666,0.202 1.243,0.405 1.837,0.547 7.768,1.835 13.376,6.47 17.646,13.104 1.955,3.033 4.259,5.935 6.843,8.444 2.823,2.745 6.101,5.035 9.285,7.377 1.317,0.97 2.876,1.641 4.387,2.31 2.232,0.987 2.903,2.14 2.191,4.48 -0.866,2.849 -2.715,4.825 -5.639,5.604 -1.215,0.324 -2.49,0.417 -3.755,0.615 -1.349,2.688 0.244,4.794 2.013,6.384 0.866,0.782 1.959,1.342 3.008,1.889 1.196,0.623 1.682,1.557 1.762,2.864 0.274,4.48 -1.681,7.746 -5.83,9.631 -0.21,0.095 -0.396,0.241 -0.588,0.357 1.46,2.796 2.903,5.564 4.432,8.496 0.26,-0.058 0.725,-0.095 1.13,-0.273 3.605,-1.577 7.246,-1.505 10.919,-0.289 1.938,0.642 2.716,1.783 2.341,3.774 -0.264,1.395 -0.614,2.818 -1.22,4.088 -1.393,2.927 -2.937,5.781 -4.485,8.63 -0.392,0.715 -0.867,1.259 -0.287,2.124 1.729,2.589 1.955,5.556 1.586,8.487 -0.362,2.892 -1.072,5.752 -1.84,8.57 -0.21,0.766 -1.065,1.616 -1.823,1.91 -1.105,0.427 -1.862,-0.506 -2.498,-1.376 -0.512,-0.7 -1.068,-1.377 -1.648,-2.025 -1.646,-1.835 -3.672,-2.657 -6.167,-2.377 -4.721,0.527 -9.404,1.068 -14.057,2.25 -6.637,1.687 -12.719,-0.027 -17.975,-4.482 -0.298,-0.254 -0.608,-0.491 -0.923,-0.723 -0.055,-0.041 -0.151,-0.021 -0.584,-0.068 -0.179,0.64 -0.442,1.334 -0.564,2.053 -1.896,11.105 -4.472,22.059 -7.745,32.831 -2.488,8.186 -5.272,16.287 -8.045,24.384 -1.719,5.02 -3.464,10.046 -5.547,14.92 -3.761,8.799 -8.954,16.76 -14.916,24.229 -7.56,9.468 -16.236,17.789 -25.889,25.092 -6.263,4.735 -12.67,9.283 -19.844,12.566 -4.899,2.242 -9.943,4.164 -14.861,6.365 -8.836,3.955 -17.495,8.262 -25.481,13.785 -2.187,1.513 -4.166,3.32 -6.241,4.994 0.103,0.23 0.202,0.465 0.303,0.697 z m -4.164,-2.944 c 2.244,-1.852 4.396,-3.854 6.771,-5.547 9.088,-6.486 19.08,-11.331 29.264,-15.8 4.722,-2.071 9.683,-3.685 14.193,-6.134 15.425,-8.371 28.754,-19.385 40.157,-32.747 9.646,-11.305 16.991,-23.859 21.446,-38.089 3.244,-10.364 6.867,-20.614 9.944,-31.026 3.426,-11.579 5.896,-23.393 7.75,-35.336 2.236,-14.415 3.354,-28.869 1.874,-43.431 -0.767,-7.532 -2.433,-14.878 -5.349,-21.899 -0.293,-0.702 -0.753,-1.338 -1.067,-1.887 -0.345,0 -0.44,-0.029 -0.49,0.006 -0.774,0.552 -1.565,1.084 -2.306,1.679 -10.634,8.533 -22.346,15.029 -35.481,18.874 -6.978,2.044 -14.102,3.132 -21.351,3.311 -10.349,0.254 -20.385,-1.526 -30.134,-4.973 -11.023,-3.896 -21.029,-9.645 -30.354,-16.638 -2.777,-2.083 -5.572,-4.139 -8.263,-6.134 -0.384,0.198 -0.558,0.236 -0.658,0.347 -5.015,5.448 -10.577,10.298 -16.642,14.512 -9.592,6.669 -19.963,11.671 -31.419,14.369 -9.09,2.141 -18.246,2.665 -27.43,1.307 -16.081,-2.374 -30.203,-9.354 -43.052,-19.097 -2.576,-1.955 -5.086,-3.997 -7.698,-6.057 -0.351,0.436 -0.632,0.713 -0.827,1.041 -2.515,4.244 -3.72,8.908 -4.353,13.743 -1.362,10.393 -0.863,20.781 0.563,31.102 1.434,10.376 3.168,20.711 4.957,31.032 2.525,14.557 5.851,28.93 10.481,42.977 4.109,12.465 9.121,24.545 15.771,35.888 4.873,8.314 10.495,16.084 17.415,22.839 7.577,7.398 16.017,13.73 24.824,19.559 3.161,2.091 6.534,3.966 10.021,5.436 6.941,2.927 14.098,5.34 21.038,8.267 7.681,3.236 15.172,6.921 22.009,11.746 2.894,2.039 5.534,4.437 8.396,6.76 z m 108.402,-11.716 c -1.019,0.578 -1.791,0.966 -2.514,1.434 -5.11,3.301 -10.714,5.525 -16.46,7.373 -8.244,2.653 -16.675,4.528 -25.226,5.956 -13.58,2.264 -27.262,3.34 -40.986,3.928 -8.559,0.366 -17.131,0.401 -25.697,0.572 -15.406,0.308 -30.802,0.246 -46.162,-1.245 -9.88,-0.959 -19.746,-2.06 -29.469,-4.081 -8.006,-1.666 -15.943,-3.655 -23.344,-7.286 -2.55,-1.251 -5.025,-2.654 -7.665,-4.058 -0.135,0.688 -0.304,1.286 -0.363,1.894 -0.722,7.432 -1.376,14.871 -1.053,22.347 0.092,2.134 0.488,4.252 0.739,6.377 0.129,1.097 0.714,1.827 1.599,2.5 4.096,3.119 8.75,5.151 13.52,6.893 11.556,4.217 23.598,6.31 35.766,7.642 13.11,1.435 26.287,1.938 39.471,1.857 12.858,-0.077 25.716,-0.372 38.572,-0.673 8.334,-0.194 16.675,-0.362 24.989,-0.915 14.13,-0.938 28.059,-3.192 41.623,-7.396 7.682,-2.38 15.066,-5.44 22.006,-9.542 1.438,-0.85 2.175,-1.904 2.246,-3.598 0.225,-5.227 0.745,-10.447 0.768,-15.672 0.019,-4.755 -0.626,-9.484 -2.36,-14.307 z m -146.494,-204.411 c 2.468,-0.795 2.496,-0.795 2.489,-2.969 -0.019,-6.937 -1.015,-13.758 -2.457,-20.535 -2.866,-13.47 -8.046,-25.883 -16.659,-36.731 -4.63,-5.834 -10.143,-10.702 -16.466,-14.633 -7.639,-4.746 -15.966,-7.736 -24.762,-9.447 -4.674,-0.91 -9.346,-1.829 -14.16,-0.809 -6.967,1.472 -13.08,4.385 -17.58,10.099 -3.82,4.846 -5.426,10.501 -5.952,16.557 -0.54,6.232 0.261,12.355 1.391,18.457 0.362,1.955 -0.106,2.814 -2.001,3.308 -0.996,0.258 -2.023,0.397 -3.035,0.602 -4.845,0.968 -8.917,3.307 -11.98,7.171 -1.865,2.351 -3.283,5.062 -5.167,7.396 -5.116,6.337 -10.876,11.981 -18.172,15.842 -0.532,0.279 -1.022,0.64 -1.531,0.964 2.144,3.299 4.099,3.394 10.003,0.514 0.793,0.966 1.622,1.978 2.453,2.99 -0.292,0.409 -0.417,0.758 -0.662,0.906 -1.961,1.172 -2.357,2.936 -2.336,5.089 0.012,1.195 -0.533,2.465 -1.075,3.581 -1.028,2.118 -2.765,3.65 -4.662,4.992 -1.494,1.059 -1.7,1.701 -1.034,3.34 0.833,2.046 2.058,2.845 4.276,2.581 1.009,-0.12 2.064,-0.36 2.962,-0.814 1.906,-0.964 3.707,-2.131 5.585,-3.153 0.817,-0.444 1.699,-0.964 2.588,-1.045 1.777,-0.163 3.58,-0.048 5.867,-0.048 -1.228,1.123 -2.12,1.943 -3.071,2.814 1.184,1.643 2.323,3.157 3.393,4.72 2.573,3.758 4.689,7.719 5.512,12.281 0.536,2.967 -0.034,5.713 -1.56,8.229 -0.497,0.82 -1.363,1.583 -2.239,1.98 -6.04,2.748 -10.923,-0.785 -13.291,-5.345 -1.742,-3.357 -4.266,-6.004 -6.714,-9.365 -0.494,1.105 -0.902,1.833 -1.15,2.612 -0.907,2.853 -0.859,5.79 -0.677,8.733 0.049,0.797 0.008,1.602 0.008,2.401 -0.168,0.037 -0.336,0.072 -0.504,0.109 -0.494,-0.694 -1,-1.379 -1.479,-2.083 -0.715,-1.049 -1.337,-2.17 -2.128,-3.155 -2.432,-3.031 -6.644,-4.049 -9.895,-2.346 0.801,2.954 1.878,5.843 3.554,8.438 0.785,1.214 1.906,2.333 3.116,3.132 2.114,1.398 2.295,2.759 0.125,4.04 -1.731,1.022 -2.635,2.452 -2.859,4.393 -0.265,2.296 -0.013,4.532 0.672,7.024 0.768,-0.479 1.351,-0.828 1.921,-1.196 1.838,-1.191 3.814,-2.027 6.035,-1.877 5.228,0.351 10.44,0.799 15.504,2.321 1.419,0.427 2.971,0.667 4.447,0.609 6.155,-0.234 10.564,-3.273 13.611,-8.587 1.37,-2.389 1.766,-4.633 1.271,-7.426 -1.41,-7.959 -2.413,-15.992 -3.61,-23.992 -0.15,-1.002 -0.284,-2.12 -0.808,-2.94 -2.082,-3.266 -4.287,-6.458 -6.515,-9.629 -0.589,-0.839 -1.023,-1.605 -0.557,-2.61 0.472,-1.019 1.353,-1.3 2.374,-1.176 0.864,0.107 1.713,0.326 2.574,0.465 0.82,0.134 1.646,0.227 2.507,0.345 0.4,-3.056 0.673,-5.818 1.153,-8.541 0.274,-1.563 0.113,-2.546 -1.385,-3.553 -3.867,-2.601 -5.449,-6.245 -4.195,-10.936 1.673,-6.252 5.923,-9.633 12.084,-10.655 8.259,-1.369 15.9,0.66 23.034,4.806 1.221,0.71 2.422,1.606 3.328,2.675 3.665,4.321 8.56,6.446 13.814,7.884 2.169,0.591 3.944,1.543 5.25,3.382 0.871,1.226 1.697,2.512 2.741,3.577 2.221,2.263 4.562,4.408 6.875,6.58 0.299,0.281 0.714,0.44 1.492,0.902 -0.699,-6.722 -0.673,-13.122 -4.939,-18.443 -0.974,-1.216 -0.765,-2.326 0.477,-3.272 0.566,-0.43 1.212,-0.752 1.821,-1.126 2.287,-1.401 4.134,-3.231 5.268,-5.677 1.179,-2.545 1.183,-5.113 0.07,-7.969 -1.366,0.7 -2.396,1.269 -3.458,1.763 -2.969,1.385 -6.004,2.504 -9.373,2.308 -2.642,-0.155 -4.83,-1.125 -5.984,-3.605 -0.553,-1.187 -0.892,-2.541 -1.018,-3.85 -0.227,-2.362 -0.905,-4.528 -2.327,-6.403 -1.128,-1.488 -2.351,-2.946 -4.644,-3.305 0.074,0.95 0.201,1.722 0.181,2.488 -0.052,1.892 0.005,3.812 -0.303,5.67 -0.59,3.574 -2.86,5.816 -6.308,6.693 -5.086,1.295 -13.337,-0.989 -15.624,-8.516 -0.452,-1.488 -1.229,-2.897 -1.996,-4.263 -0.761,-1.354 -1.7,-2.606 -2.602,-3.966 1.092,-0.912 2.044,-1.705 3.133,-2.615 1.383,1.346 2.638,2.657 4,3.846 0.463,0.403 1.331,0.851 1.774,0.677 1.494,-0.595 2.881,-1.46 4.624,-2.389 -0.882,-0.669 -1.375,-1.03 -1.853,-1.406 -1.613,-1.272 -3.345,-2.422 -4.806,-3.852 -3.91,-3.82 -4.113,-8.754 -0.331,-12.662 1.963,-2.026 4.325,-3.724 6.694,-5.285 2.564,-1.69 4.347,-0.708 4.859,2.334 0.209,1.25 0.433,2.504 0.804,3.708 0.358,1.162 1.396,1.385 2.492,1.435 1.132,0.052 1.455,-0.688 1.754,-1.573 0.226,-0.666 0.535,-1.327 0.915,-1.92 2.314,-3.617 5.714,-5.038 9.921,-4.984 4.994,0.062 9.439,1.912 13.827,4.003 2.224,1.057 4.264,2.374 6.017,4.427 -0.753,1.009 -1.487,1.99 -2.313,3.095 -1.127,-0.651 -2.055,-1.239 -3.029,-1.735 -1.687,-0.857 -2.897,-0.617 -3.877,0.991 -1.754,2.884 -2.886,5.993 -2.851,9.437 0.024,2.376 1.068,4.325 2.752,5.861 0.608,0.555 1.894,1.081 2.485,0.803 1.617,-0.762 3.341,-1.701 4.44,-3.047 1.349,-1.652 2.949,-2.395 4.861,-2.603 1.726,-0.188 3.501,-0.232 5.225,-0.056 4.421,0.448 7.687,2.688 9.792,6.65 1.783,3.355 1.641,7.009 2.133,11.103 -1.002,-0.828 -1.612,-1.293 -2.179,-1.806 -2.238,-2.019 -3.439,-2.188 -6.148,-0.983 -1.898,0.843 -3.277,2.193 -4.257,3.987 -1.884,3.454 -1.444,7.283 1.121,9.825 0.129,-0.081 0.289,-0.14 0.384,-0.252 5.168,-6.105 12.318,-5.869 17.32,0.45 4.795,6.056 7.724,12.885 8.958,20.479 0.129,0.753 0.289,1.504 0.437,2.285 z m 209.134,-7.366 c -0.484,-0.292 -0.681,-0.434 -0.895,-0.539 -4.966,-2.432 -9.409,-5.63 -13.224,-9.598 -2.791,-2.906 -5.685,-5.845 -7.803,-9.228 -4.168,-6.658 -9.607,-11.043 -17.519,-12.172 -3.394,-0.485 -3.608,-1.002 -2.955,-4.453 1.2,-6.344 1.867,-12.713 1.047,-19.181 -0.763,-5.986 -2.686,-11.491 -7.019,-15.806 -7.15,-7.118 -15.827,-9.971 -25.849,-8.604 -1.493,0.206 -2.975,0.493 -4.46,0.754 -12.918,2.277 -24.609,7.196 -34.61,15.87 -6.064,5.26 -10.966,11.419 -14.948,18.36 -4.184,7.284 -7.104,15.069 -9.111,23.191 -1.91,7.729 -3.009,15.589 -3.145,23.563 -0.032,1.982 0.027,1.984 2.446,2.63 0.164,-0.758 0.356,-1.503 0.486,-2.257 1.317,-7.643 4.09,-14.6 9.035,-20.707 1.358,-1.677 2.787,-2.958 4.665,-3.837 4.104,-1.924 8.7,-1.556 12.19,2.207 0.425,0.461 0.848,0.921 1.331,1.449 2.447,-2.816 2.915,-5.745 1.397,-9.098 -1.497,-3.314 -4.086,-4.98 -7.544,-5.374 -0.746,-0.083 -1.658,0.359 -2.331,0.801 -0.956,0.63 -1.763,1.488 -2.636,2.248 -0.185,-0.076 -0.368,-0.153 -0.553,-0.231 0.435,-2.61 0.768,-5.246 1.329,-7.832 0.647,-2.994 2.387,-5.246 4.959,-6.979 4.045,-2.729 8.426,-2.502 12.84,-1.575 1.131,0.238 2.097,1.315 3.115,2.042 1.399,0.997 2.715,2.135 4.196,2.986 0.522,0.301 1.556,0.169 2.134,-0.159 2.42,-1.379 3.444,-3.651 3.525,-6.351 0.094,-3.198 -1.049,-6.079 -2.606,-8.78 -1.107,-1.926 -2.414,-2.208 -4.426,-1.189 -0.901,0.454 -1.767,0.979 -2.773,1.546 -0.862,-1.141 -1.609,-2.126 -2.428,-3.208 1.239,-1.038 2.205,-2.145 3.415,-2.806 4.688,-2.564 9.577,-4.651 14.951,-5.294 5.184,-0.621 10.699,1.164 12.819,7.127 0.409,1.149 1.174,1.355 2.229,1.212 1.39,-0.192 2.074,-1.086 2.344,-2.349 0.232,-1.088 0.321,-2.206 0.575,-3.285 0.54,-2.308 2.266,-3.163 4.278,-1.918 2.283,1.412 4.591,2.886 6.562,4.689 4.688,4.293 4.176,10.092 0.173,13.552 -0.718,0.623 -1.439,1.243 -2.206,1.802 -1.318,0.962 -2.672,1.875 -4.346,3.043 1.432,0.816 2.492,1.47 3.596,2.041 1.278,0.661 2.329,0.492 3.35,-0.696 1.057,-1.23 2.369,-2.238 3.653,-3.421 1.125,1.009 2.042,1.831 3.023,2.709 -0.506,0.715 -0.897,1.204 -1.218,1.736 -1.094,1.821 -2.599,3.534 -3.163,5.51 -2.211,7.75 -9.757,10.058 -14.995,9.393 -4.013,-0.51 -7.003,-3.396 -7.585,-7.434 -0.258,-1.791 -0.097,-3.636 -0.12,-5.459 -0.008,-0.65 -0.002,-1.301 -0.002,-2.337 -4.189,2.106 -6.363,5.063 -6.78,9.259 -0.623,6.237 -4.306,9.043 -10.473,7.648 -2.451,-0.552 -4.786,-1.633 -7.162,-2.505 -0.855,-0.314 -1.676,-0.722 -2.49,-1.079 -1.729,3.363 -0.72,7.901 1.678,10.149 1.489,1.398 3.2,2.573 4.883,3.749 1.742,1.216 2.099,2.343 0.824,3.943 -4.133,5.188 -4.239,11.406 -4.631,17.657 3.774,-2.814 7.42,-5.698 10.176,-9.48 1.505,-2.065 3.117,-3.923 5.694,-4.358 4.271,-0.722 7.843,-2.936 11.514,-4.975 0.409,-0.227 0.832,-0.51 1.115,-0.871 2.901,-3.722 6.9,-5.807 11.183,-7.383 6.07,-2.24 12.312,-3.125 18.702,-1.586 6.058,1.46 9.812,5.199 11.024,11.425 0.639,3.29 -0.407,5.987 -2.729,8.175 -1.188,1.121 -2.69,1.934 -4.115,2.773 -0.758,0.444 -1.326,0.852 -1.129,1.827 0.582,2.862 1.158,5.727 1.775,8.787 0.89,-0.068 1.745,-0.085 2.589,-0.203 1.256,-0.177 2.505,-0.592 3.756,-0.58 0.838,0.008 1.932,0.357 2.446,0.954 0.744,0.865 0.199,1.833 -0.472,2.768 -2.262,3.149 -4.459,6.354 -6.547,9.619 -0.516,0.811 -0.757,1.943 -0.741,2.92 0.157,9.721 -0.85,19.355 -2.075,28.967 -0.238,1.865 0.303,3.225 1.444,4.536 4.535,5.207 10.23,6.809 16.774,5.056 4.641,-1.243 9.336,-1.817 14.096,-2.168 2.917,-0.217 5.494,0.487 7.774,2.329 0.334,0.27 0.798,0.378 1.643,0.766 0.159,-2.163 0.359,-4.026 0.415,-5.894 0.07,-2.383 -0.669,-4.267 -3.057,-5.411 -1.891,-0.906 -1.806,-2.83 0.09,-3.829 4.693,-2.471 5.298,-7.298 7.172,-11.495 -4.813,-1.51 -8.523,-0.25 -11.104,3.547 -0.909,1.34 -1.806,2.689 -3.004,4.48 -0.625,-4.977 0.95,-9.707 -2.184,-14.032 -2.396,3.115 -4.938,5.591 -6.573,8.844 -1.681,3.351 -4.405,5.636 -8.209,6.247 -2.514,0.404 -5.158,-0.025 -6.84,-1.865 -2.203,-2.415 -3.212,-5.628 -2.287,-8.88 0.883,-3.098 2.087,-6.164 3.6,-9.003 1.507,-2.828 3.574,-5.361 5.438,-8.087 -0.939,-0.773 -1.833,-1.513 -3.062,-2.529 1.689,0 3,0.082 4.3,-0.02 2.015,-0.155 3.638,0.549 5.304,1.654 1.833,1.218 3.854,2.252 5.929,2.977 3.857,1.348 6.019,-0.264 6.33,-4.445 -1.13,-0.844 -2.351,-1.608 -3.397,-2.564 -1.898,-1.732 -3.683,-3.726 -3.694,-6.406 -0.01,-2.422 -0.561,-4.344 -2.549,-5.782 -0.163,-0.118 -0.201,-0.407 -0.372,-0.781 0.743,-0.933 1.515,-1.902 2.339,-2.938 3.473,1.983 6.833,3.611 10.476,-0.211 z m -61.63,201.144 c 0.518,-1.008 0.832,-1.916 1.387,-2.635 1.148,-1.486 2.254,-3.086 3.69,-4.248 2.089,-1.687 4.396,-3.128 6.716,-4.495 4.915,-2.897 9.711,-6.09 14.893,-8.407 6.672,-2.985 12.75,-6.745 18.285,-11.433 3.035,-2.569 5.909,-5.36 7.43,-9.145 0.479,-1.188 0.741,-2.666 0.504,-3.897 -0.413,-2.157 -1.047,-4.345 -2.019,-6.306 -2.496,-5.036 -5.185,-9.979 -7.894,-14.905 -0.777,-1.414 -1.889,-2.646 -3.179,-4.417 -0.191,1.524 -0.327,2.437 -0.421,3.352 -0.431,4.174 -2.197,7.734 -4.904,10.89 -3.551,4.135 -8.061,6.971 -12.973,9.055 -10.48,4.449 -20.481,9.738 -29.832,16.229 -4.972,3.45 -9.574,7.336 -12.993,12.428 -1.115,1.662 -1.208,2.212 0.266,3.49 2.259,1.961 4.619,3.855 7.146,5.442 4.608,2.893 9.843,4.79 13.898,9.002 z m -258.766,-69.133 c -1.224,1.666 -2.273,3.035 -3.259,4.449 -3.328,4.765 -6.218,9.776 -8.166,15.269 -1.284,3.623 -1.951,7.38 -1.453,11.233 0.427,3.296 1.347,6.506 4.34,8.386 5.438,3.413 10.93,6.756 16.545,9.869 4.984,2.764 10.208,5.093 15.247,7.766 6.045,3.206 11.224,7.42 14.706,13.461 0.099,0.173 0.375,0.242 0.764,0.479 1.703,-2.522 4.286,-3.856 6.928,-5.162 2.414,-1.192 4.791,-2.484 7.081,-3.902 2.016,-1.247 3.899,-2.713 5.82,-4.111 1.075,-0.783 1.116,-1.679 0.476,-2.878 -1.664,-3.119 -3.844,-5.82 -6.401,-8.213 -6.965,-6.522 -15.242,-11.061 -23.602,-15.463 -5.539,-2.917 -11.188,-5.647 -16.57,-8.828 -2.965,-1.754 -5.634,-4.102 -8.156,-6.479 -2.804,-2.644 -4.337,-6.026 -4.301,-9.991 0.015,-1.804 10e-4,-3.608 10e-4,-5.885 z m 315.647,-45.535 c -0.493,0.074 -0.749,0.048 -0.941,0.151 -0.559,0.294 -1.113,0.611 -1.633,0.971 -8.634,6.022 -18.16,10.007 -28.402,12.282 -2.272,0.504 -3.832,1.827 -5.205,3.495 -1.444,1.755 -0.649,3.751 -0.472,5.689 0.135,1.479 1.412,1.575 2.301,2.114 4.416,2.679 8.777,5.448 12.192,9.391 1.088,1.255 2.018,1.282 3.249,0.468 0.593,-0.392 1.229,-0.722 1.825,-1.113 6.021,-3.966 12.113,-7.829 18.038,-11.936 6.989,-4.845 13.304,-10.49 18.827,-16.981 0.931,-1.098 1.721,-2.315 2.575,-3.477 -0.118,-0.128 -0.236,-0.256 -0.354,-0.384 -1.428,0.597 -2.827,1.264 -4.286,1.772 -4.973,1.735 -9.691,3.88 -13.555,7.611 -1.476,1.426 -3.572,0.733 -4.03,-1.27 -0.174,-0.761 -0.119,-1.577 -0.123,-2.368 -0.016,-2.11 -0.01,-4.224 -0.01,-6.415 z m -359.016,4.525 c 12.109,15.943 28.732,25.69 46.467,34.233 0.21,-0.325 0.333,-0.525 0.466,-0.72 3.222,-4.689 7.098,-8.721 11.798,-11.97 0.615,-0.426 1.085,-1.375 1.208,-2.146 0.415,-2.589 -0.307,-4.734 -2.917,-5.873 -0.943,-0.41 -1.88,-0.858 -2.859,-1.167 -3.628,-1.146 -7.318,-2.114 -10.901,-3.386 -5.313,-1.89 -10.486,-4.128 -15.244,-7.211 -1.572,-1.019 -3.123,-2.069 -4.877,-3.235 -0.243,5.348 1.004,10.213 2.086,15.17 -8.31,-4.98 -16.207,-10.348 -25.227,-13.695 z m 74.327,-125.112 c 1.228,5.029 6.424,6.545 10.368,5.89 1.616,-0.27 2.827,-1.293 3.142,-2.894 0.333,-1.689 0.419,-3.446 0.408,-5.172 -0.008,-1.256 -0.344,-2.511 -0.539,-3.766 -0.462,-2.962 0.771,-4.255 3.706,-3.699 3.109,0.592 5.785,1.953 7.936,4.418 2.349,2.69 3.495,5.807 3.966,9.253 0.525,3.836 1.581,4.651 5.348,3.964 1.006,-0.185 2.013,-0.489 2.953,-0.892 1.82,-0.78 3.566,-1.734 5.394,-2.492 1.146,-0.475 2.417,-1.072 3.57,-0.964 0.893,0.085 1.69,1.181 2.466,1.778 1.545,-1.317 2.956,-2.878 4.687,-3.896 1.709,-1.008 3.741,-1.466 5.704,-2.191 -0.913,-3.202 -3.258,-4.732 -6.165,-5.333 -2.153,-0.446 -4.868,-0.995 -6.394,0.693 -2.107,2.329 -4.91,3.45 -7.217,5.345 -0.66,0.543 -1.252,0.694 -2.154,0.38 -4.594,-1.601 -8.183,-6.293 -8.352,-11.148 -0.12,-3.481 0.646,-6.778 2.235,-9.867 0.785,-1.526 1.668,-3.002 2.614,-4.691 -3.434,-1.154 -6.666,-2.386 -10.264,-1.823 -2.841,0.448 -4.885,2.403 -5.381,5.24 -0.403,2.31 -0.46,2.378 -2.719,2.845 -0.699,0.145 -1.403,0.306 -2.112,0.361 -2.55,0.188 -6.049,-1.205 -6.896,-4.021 -0.291,-0.966 -0.683,-1.901 -1.165,-3.227 -1.223,0.942 -2.321,1.662 -3.268,2.544 -3.542,3.297 -3.535,5.756 0.17,8.861 1.689,1.416 3.636,2.531 5.482,3.755 2.395,1.588 2.729,3.869 0.635,5.903 -1.116,1.084 -2.512,1.913 -3.867,2.709 -1.351,0.795 -2.809,1.408 -4.291,2.137 z m 172.998,-2.975 c 4.65,0.367 8.01,2.544 10.563,6.014 2.351,-2.766 2.814,-2.837 5.962,-1.305 1.924,0.935 3.84,1.912 5.836,2.672 1.386,0.532 2.888,0.916 4.365,1.03 2.312,0.178 3.167,-0.588 3.644,-2.822 0.167,-0.771 0.192,-1.574 0.34,-2.352 1.156,-6.035 5.281,-11.126 11.474,-12.193 3.491,-0.599 4.587,0.467 4.119,3.943 -0.031,0.237 -0.099,0.47 -0.112,0.706 -0.12,2.054 -0.359,4.11 -0.314,6.161 0.052,2.57 1.274,3.978 3.792,4.405 2.934,0.499 5.682,-0.093 8.021,-2.035 1.113,-0.923 1.91,-2.081 2.091,-3.679 -1.326,-0.625 -2.662,-1.139 -3.879,-1.852 -1.425,-0.836 -2.88,-1.705 -4.086,-2.814 -2.413,-2.223 -2.056,-4.387 0.7,-6.142 2.135,-1.36 4.243,-2.781 6.224,-4.352 1.255,-0.997 2.168,-2.384 1.857,-4.15 -0.378,-2.143 -3.733,-5.264 -6.118,-5.719 -0.204,0.665 -0.381,1.35 -0.619,2.011 -1.016,2.82 -3.266,4.526 -6.287,4.581 -1.251,0.023 -2.51,-0.285 -3.763,-0.459 -1.34,-0.186 -1.992,-0.786 -2.099,-2.319 -0.201,-2.944 -1.975,-4.668 -4.851,-5.374 -3.248,-0.799 -6.271,0.202 -9.314,1.051 -0.475,0.134 -0.881,0.52 -1.381,0.826 2.002,3.268 3.676,6.468 4.334,10.12 1.18,6.542 -1.842,12.395 -7.729,14.695 -0.615,0.238 -1.524,0.482 -1.99,0.205 -2.178,-1.282 -4.608,-2.42 -6.269,-4.231 -2.156,-2.358 -4.627,-2.624 -7.338,-2.281 -3.239,0.403 -5.849,1.869 -7.173,5.659 z m -96.815,46.679 c -0.162,-1.401 -0.24,-2.495 -0.421,-3.571 -1.203,-7.174 -3.917,-13.642 -8.619,-19.287 -2.875,-3.45 -7.428,-3.609 -10.103,-0.054 -0.426,0.566 -0.827,1.181 -1.094,1.833 -1.065,2.608 -0.912,2.488 -3.897,2.114 -0.378,-0.048 -0.746,-0.176 -1.119,-0.266 0.115,-0.101 0.229,-0.2 0.345,-0.301 -0.997,-1.616 -1.994,-3.233 -2.606,-4.226 -2.095,2.106 -4.084,4.108 -6.074,6.111 -0.048,0.588 0.435,1.661 0.852,2.758 2.179,5.725 2.618,11.718 2.713,17.763 0.033,2.145 0.174,2.302 2.308,2.308 5.971,0.016 11.879,-0.628 17.663,-2.084 3.353,-0.846 6.623,-2.029 10.052,-3.098 z m 101.455,-21.658 c -1.045,-1.722 -1.757,-3.144 -2.695,-4.392 -2.229,-2.967 -6.916,-3.303 -9.404,-0.534 -5.508,6.132 -8.777,13.332 -9.629,21.562 -0.232,2.256 -0.169,2.279 2.042,2.965 8.638,2.688 17.472,3.92 26.518,3.562 0.455,-0.015 0.905,-0.13 1.521,-0.221 0.238,-7.779 0.541,-15.469 4.02,-21.696 -2.196,-2.325 -4.128,-4.37 -6.242,-6.605 -0.801,1.34 -1.787,2.988 -2.97,4.967 -0.828,0.104 -2.067,0.259 -3.161,0.392 z m 72.964,9.585 c 1.088,-0.708 1.922,-1.288 2.793,-1.806 2.056,-1.222 2.589,-3.049 2.259,-5.303 -0.39,-2.67 -1.684,-4.724 -3.946,-6.196 -3.142,-2.044 -6.646,-2.448 -10.268,-2.248 -3.824,0.211 -7.485,1.059 -11.05,2.548 -2.983,1.247 -5.694,2.74 -7.754,5.29 -0.493,0.611 -1.076,1.207 -1.74,1.606 -4.144,2.508 -8.351,4.924 -13.154,5.944 -1.261,0.27 -2.288,0.758 -2.919,1.823 -1.691,2.854 -4.199,4.93 -6.598,7.115 -1.146,1.045 -2.297,2.085 -3.446,3.126 0.112,0.213 0.225,0.427 0.337,0.64 1.207,-0.196 2.427,-0.326 3.615,-0.596 12.387,-2.814 23.636,-8.149 33.941,-15.501 3.224,-2.3 6.264,-4.853 9.452,-7.206 1.849,-1.363 2.911,-1.119 4.093,0.831 0.655,1.078 1.181,2.244 1.686,3.403 0.878,2.035 1.694,4.092 2.699,6.53 z m -212.277,16.126 c -1.016,-1.021 -1.718,-1.74 -2.439,-2.442 -3.004,-2.924 -6.339,-5.523 -8.534,-9.228 -0.448,-0.756 -1.564,-1.295 -2.48,-1.565 -6.159,-1.808 -11.916,-4.263 -16.22,-9.293 -0.405,-0.476 -0.924,-0.873 -1.449,-1.218 -6.036,-3.938 -12.625,-5.88 -19.849,-5.17 -4.849,0.476 -9.079,2.954 -10.008,8.54 -0.443,2.667 0.414,4.383 3.115,5.565 0.708,-1.677 1.295,-3.421 2.157,-5.015 0.86,-1.586 1.872,-3.132 3.042,-4.503 1.493,-1.75 2.708,-1.707 4.487,-0.254 2.763,2.256 5.507,4.536 8.325,6.72 8.848,6.854 18.493,12.231 29.218,15.562 3.308,1.025 6.607,2.142 10.635,2.301 z m 165.55,176.785 c -3.635,4.333 -4.959,23.992 -3.404,27.981 3.143,-1.01 6.34,-1.912 9.445,-3.067 5.058,-1.884 10.058,-3.932 14.312,-7.384 1.522,-1.235 1.585,-1.735 0.525,-3.358 -1.483,-2.271 -3.718,-3.641 -6.01,-4.929 -3.043,-1.709 -6.15,-3.311 -9.125,-5.126 -2.008,-1.224 -3.839,-2.738 -5.743,-4.117 z m -173.558,3.033 c -0.339,0.185 -0.68,0.357 -1.008,0.549 -4.991,2.909 -9.965,5.85 -14.981,8.714 -1.737,0.989 -2.941,2.38 -3.778,4.143 -0.885,1.869 -0.833,2.063 0.831,3.346 4.655,3.589 10.014,5.754 15.523,7.585 2.224,0.736 4.511,1.285 6.788,1.926 1.123,-6.128 -0.843,-21.167 -3.375,-26.263 z m 218.726,-78.057 c -0.471,2.311 1.975,31.368 2.722,32.964 0.878,-0.514 1.797,-0.956 2.606,-1.548 1.147,-0.839 2.282,-1.716 3.3,-2.705 6.544,-6.355 7.595,-14.142 0.816,-21.585 -1.11,-1.222 -2.383,-2.331 -3.712,-3.314 -1.804,-1.335 -3.732,-2.494 -5.732,-3.812 z m -263.547,2.177 c -0.678,0.252 -0.93,0.283 -1.098,0.419 -3.985,3.232 -7.513,6.891 -9.569,11.659 -2.75,6.381 -2.682,11.553 3.075,16.824 1.962,1.796 4.011,3.53 7.038,4.633 0.186,-11.281 0.368,-22.26 0.554,-33.535 z m 296.412,-89.338 c -3.666,-1.556 -7.036,-2.987 -10.468,-4.441 -2.986,3.28 -5.532,6.898 -7.312,10.988 -0.942,2.163 -1.709,4.434 -1.065,6.9 0.771,2.96 3.438,4.133 6.015,2.428 1.157,-0.766 2.331,-1.795 2.979,-2.988 1.911,-3.52 4.481,-6.51 7.038,-9.534 0.952,-1.126 1.897,-2.263 2.813,-3.353 z m -330.592,3.173 c 0.47,0.632 0.986,1.386 1.564,2.09 2.909,3.547 5.959,6.98 8.09,11.103 0.731,1.416 1.792,2.578 3.342,3.227 2.698,1.133 4.955,0.097 5.536,-2.709 0.201,-0.976 0.2,-2.054 0.032,-3.041 -1.021,-6.004 -4.684,-10.554 -8.219,-15.063 -3.498,1.484 -6.805,2.889 -10.345,4.393 z"
       id="path4353"
       inkscape:connector-curvature="0"
       style="clip-rule:evenodd;fill:#a6b8c1;fill-opacity:1;fill-rule:evenodd" /><path
       d="m 811.4745,226.40765 c -1.419,-2.533 -2.439,-5.257 -3.209,-8.05 -1.13,-4.098 -1.388,-8.23 -0.32,-12.443 1.482,-5.853 4.901,-10.11 10.36,-12.501 1.42,-0.621 3.494,-0.394 5.055,0.104 2.31,0.741 4.438,2.06 6.629,3.16 0.947,0.473 1.859,1.012 2.788,1.522 0.139,-0.161 0.277,-0.322 0.416,-0.485 -0.249,-0.51 -0.43,-1.071 -0.758,-1.522 -1.216,-1.676 -1.42,-3.534 -0.887,-5.44 1.842,-6.579 3.994,-13.048 7.557,-18.932 1.558,-2.576 3.217,-5.101 5.868,-6.922 3.16,1.918 5.298,4.784 7.153,7.812 3.161,5.167 5.253,10.805 6.889,16.63 0.547,1.953 0.477,3.559 -1.121,4.953 -0.318,0.277 -0.484,0.731 -0.838,1.284 2.069,0.167 3.566,-0.615 5.122,-1.415 7.764,-4.003 15.878,-2.671 19.923,4.856 1.723,3.2 2.714,6.578 3.442,10.071 0.157,0.753 0.117,1.612 -0.071,2.364 -0.981,3.912 -2.024,7.808 -3.088,11.698 -0.158,0.582 -0.531,1.105 -1.021,2.097 -0.753,-0.77 -1.457,-1.235 -1.806,-1.891 -2.232,-4.199 -5.789,-6.026 -10.595,-5.371 -1.021,0.14 -2.06,0.138 -3.082,0.277 -5.992,0.818 -9.918,4.248 -12.154,9.746 -1.359,3.342 -1.928,6.846 -1.993,10.44 -0.018,0.938 -0.004,1.879 -0.004,3.168 -1.792,0.177 -3.411,0.419 -5.039,0.478 -1.424,0.048 -2.856,-0.187 -4.281,-0.151 -1.413,0.031 -1.918,-0.596 -2.091,-1.945 -0.371,-2.901 -0.667,-5.848 -1.417,-8.659 -1.09,-4.094 -2.725,-8.02 -6.466,-10.488 -1.288,-0.85 -2.805,-1.678 -4.289,-1.833 -2.72,-0.291 -5.527,-0.346 -8.236,0 -3.389,0.43 -5.696,2.573 -6.978,5.768 -0.223,0.553 -0.522,1.076 -0.786,1.613 -0.223,10e-4 -0.448,0.005 -0.672,0.007 z"
       id="path4355"
       inkscape:connector-curvature="0"
       style="clip-rule:evenodd;fill:#a6b8c1;fill-opacity:1;fill-rule:evenodd" /><path
       d="m 848.9465,472.60165 c -7.874,-5.942 -17.247,-9.49 -26.417,-13.435 -7.065,-3.039 -14.183,-5.964 -21.158,-9.194 -6.946,-3.218 -13.14,-7.671 -19.051,-12.51 -7.966,-6.521 -14.86,-14.064 -20.84,-22.413 -5.555,-7.756 -10.318,-15.98 -13.865,-24.878 -2.115,-5.307 -4.508,-10.504 -6.515,-15.849 -6.101,-16.247 -10.495,-32.949 -13.036,-50.127 -1.944,-13.144 -3.006,-26.341 -2.484,-39.638 0.048,-1.241 0.219,-2.48 0.361,-4.028 1.779,0.801 3.28,1.451 4.757,2.147 12.169,5.744 24.87,9.573 38.348,10.517 9.971,0.698 19.82,-0.025 29.528,-2.562 12.77,-3.335 24.341,-9.126 34.853,-17.016 3.799,-2.851 7.288,-6.123 10.87,-9.261 1.712,-1.497 1.685,-1.562 3.299,-0.198 9.326,7.886 19.419,14.584 30.671,19.396 16.106,6.889 32.773,9.637 50.255,6.831 11.676,-1.874 22.583,-5.698 32.737,-11.706 1.563,-0.925 3.02,-2.035 4.495,-3.102 1.377,-0.995 2.112,-0.81 2.59,0.836 0.238,0.829 0.396,1.721 0.37,2.58 -0.242,7.854 -0.332,15.721 -0.848,23.558 -1.007,15.256 -3.826,30.231 -7.54,45.041 -2.878,11.471 -6.272,22.784 -10.624,33.799 -1.804,4.569 -3.281,9.267 -5.108,13.824 -2.256,5.624 -5.475,10.736 -8.981,15.654 -8.043,11.277 -17.959,20.689 -28.992,28.986 -6.731,5.063 -13.768,9.664 -21.238,13.555 -4.146,2.16 -8.523,3.884 -12.646,6.085 -7.9,4.215 -15.69,8.629 -23.791,13.108 z m -18.828,-64.581 c 1.036,-0.295 1.69,-0.336 2.181,-0.642 3.094,-1.923 6.294,-3.718 9.182,-5.917 3.112,-2.374 5.153,-5.645 5.717,-9.593 0.562,-3.921 1.013,-7.864 1.29,-11.814 0.2,-2.843 0.029,-5.716 0.041,-8.574 0.006,-1.298 0.179,-2.463 1.458,-3.287 8.132,-5.248 16.208,-10.581 24.354,-15.804 2.323,-1.49 4.689,-3.086 7.263,-3.974 5.974,-2.058 11.891,-1.761 17.373,1.75 1.825,1.167 3.279,2.639 4.027,4.81 1.308,3.781 1.378,7.656 1.011,11.537 -1.194,12.651 -4.656,24.773 -8.825,36.713 -0.308,0.873 -1.096,1.743 -1.892,2.253 -4.477,2.865 -9.1,5.504 -13.514,8.46 -2.298,1.54 -4.598,1.847 -7.218,1.489 -11.037,-1.503 -22.115,-2.272 -33.25,-1.305 -7.381,0.64 -14.646,1.857 -21.526,4.782 -2.935,1.247 -5.726,2.748 -8.114,4.889 -0.658,0.59 -1.15,1.362 -1.832,2.187 1.886,0.942 3.53,0.876 5.179,0.809 10.312,-0.421 20.625,-0.809 30.937,-1.259 8.722,-0.38 17.442,-0.805 26.16,-1.28 0.875,-0.049 1.837,-0.427 2.564,-0.931 3.512,-2.438 6.816,-5.207 10.461,-7.42 6.776,-4.115 13.727,-7.942 20.625,-11.854 2.935,-1.664 5.136,-3.904 6.295,-7.145 1.445,-4.032 3.167,-7.972 4.459,-12.05 2.087,-6.592 3.812,-13.294 3.592,-20.3 -0.049,-1.559 -0.331,-3.168 -0.834,-4.645 -1.619,-4.765 -4.641,-8.48 -9.045,-10.936 -4.447,-2.479 -8.978,-4.726 -14.359,-4.049 -2.347,0.292 -3.392,-0.745 -2.905,-3.059 0.484,-2.308 1.426,-4.523 2.178,-6.774 0.651,-1.945 1.552,-3.84 1.938,-5.837 1.385,-7.153 -1.004,-15.098 -8.673,-19.153 -4.637,-2.449 -9.593,-3.718 -14.681,-4.648 -1.43,-0.262 -2.63,0.275 -3.788,1.061 -6.369,4.317 -12.802,8.541 -19.107,12.948 -2.513,1.756 -5.023,3.661 -7.06,5.926 -3.303,3.677 -4.81,8.332 -5.938,13.085 -1.884,7.948 -2.06,15.996 -1.846,24.13 0.378,14.475 -0.299,28.895 -3.632,43.075 -0.139,0.588 -0.132,1.21 -0.246,2.346 z m -32.285,-32.216 c 3.922,0.186 6.895,2.725 7.346,6.915 0.374,3.461 0.397,6.977 0.319,10.46 -0.131,5.888 -0.873,11.706 -2.543,17.384 -0.434,1.479 0.165,2.128 1.709,1.835 0.997,-0.188 1.982,-0.58 2.896,-1.031 4.479,-2.221 7.834,-5.7 10.303,-9.941 4.312,-7.412 5.74,-15.587 5.588,-24.047 -0.15,-8.331 -0.705,-16.657 -0.728,-24.986 -0.017,-6.899 0.422,-13.805 2.197,-20.54 0.161,-0.611 0.241,-1.251 0.266,-1.882 0.074,-1.838 -0.664,-2.651 -2.411,-2.168 -2.122,0.584 -4.137,1.557 -6.194,2.376 -2.017,0.803 -3.833,1.867 -5.158,3.671 -2.774,3.78 -3.973,8.093 -4.235,12.684 -0.23,4.069 -0.806,8.063 -2.166,11.906 -0.809,2.286 -2.027,4.426 -4.434,5.321 -5.17,1.93 -7.672,5.876 -8.71,11.014 -0.372,1.839 0.182,2.353 2.032,1.951 1.315,-0.287 2.617,-0.615 3.923,-0.922 z m -17.571,-57.366 c 1.375,0.12 2.484,-0.025 3.373,0.351 1.458,0.621 2.545,0.146 3.797,-0.493 1.688,-0.859 3.422,-1.763 5.243,-2.201 8.233,-1.984 16.648,-2.332 25.068,-2.291 4.836,0.023 9.674,0.376 14.505,0.669 7.415,0.45 13.691,-2.199 19.127,-7.024 1.187,-1.055 2.606,-2.058 3.202,-4.042 -0.793,-0.147 -1.449,-0.332 -2.114,-0.388 -6.724,-0.549 -13.451,-1.045 -20.172,-1.625 -7.664,-0.659 -15.304,-1.792 -23.029,-0.739 -8.727,1.187 -16.905,3.656 -23.514,9.85 -2.304,2.16 -4.45,4.464 -5.486,7.933 z"
       id="path4397"
       inkscape:connector-curvature="0"
       style="clip-rule:evenodd;fill:#a6b8c1;fill-opacity:1;fill-rule:evenodd" /><path
       d="m 864.3135,512.19065 c 0,2.647 0,5.295 0,8.167 -1.564,0.093 -3.11,0.185 -4.983,0.297 -0.408,-6.788 -0.804,-13.394 -1.223,-20.395 1.742,-0.132 3.332,-0.251 5.183,-0.389 0.232,2.71 0.448,5.198 0.71,8.253 0.972,-0.688 1.708,-1.032 2.2,-1.593 1.674,-1.904 3.3,-3.855 4.858,-5.853 0.7,-0.896 1.495,-1.235 2.615,-1.317 6.638,-0.477 13.271,-1.029 19.907,-1.552 0.376,-0.028 0.756,-0.003 1.361,-0.003 0.108,1.354 0.204,2.571 0.32,4.02 -3.657,0.357 -7.101,0.692 -10.832,1.058 0.1,1.229 0.185,2.284 0.279,3.456 3.472,0.781 6.817,-0.741 10.368,-0.142 0.086,1.132 0.167,2.205 0.266,3.541 -1.373,0.167 -2.599,0.332 -3.83,0.458 -1.025,0.104 -2.058,0.156 -3.085,0.246 -3.596,0.312 -3.796,0.63 -2.642,4.528 3.39,-0.27 6.838,-0.545 10.593,-0.844 0.157,1.329 0.294,2.516 0.465,3.954 -2.78,0.295 -5.28,0.609 -7.788,0.817 -4.347,0.36 -8.7,0.63 -13.044,0.992 -1.356,0.112 -2.405,-0.211 -3.4,-1.214 -1.786,-1.798 -3.706,-3.462 -5.593,-5.157 -0.671,-0.603 -1.406,-1.132 -2.112,-1.696 -0.197,0.124 -0.395,0.246 -0.593,0.368 z m 15.488,6.422 c 0.209,-0.121 0.419,-0.241 0.631,-0.361 -0.552,-6.077 -1.101,-12.158 -1.65,-18.235 -0.181,-0.057 -0.361,-0.113 -0.542,-0.169 -2.736,3.201 -5.473,6.403 -8.356,9.778 3.434,3.112 6.677,6.049 9.917,8.987 z"
       id="path4399"
       inkscape:connector-curvature="0"
       style="clip-rule:evenodd;fill:#a6b8c1;fill-opacity:1;fill-rule:evenodd" /><path
       d="m 801.1965,498.78565 c 1.634,0.084 3.176,0.163 4.993,0.255 -0.331,5.48 -0.644,10.668 -0.978,16.189 3.671,0.324 7.173,0.632 10.902,0.962 1.721,-4.088 3.489,-8.232 5.213,-12.395 1.819,-4.393 1.315,-3.879 5.604,-3.623 0.396,0.025 0.799,0.068 1.188,0.018 1.358,-0.181 2.011,0.505 2.418,1.721 1.08,3.233 2.24,6.44 3.349,9.664 1.03,2.99 2.034,5.988 3.185,9.387 -1.203,0 -2.126,-0.028 -3.046,0.005 -1.602,0.057 -2.775,-0.378 -3.039,-2.211 -0.173,-1.204 -0.977,-1.675 -2.203,-1.671 -1.902,0.007 -3.808,-0.07 -5.708,-0.187 -1.22,-0.076 -2.012,0.356 -2.272,1.566 -0.381,1.77 -1.454,2.097 -3.154,1.95 -5.055,-0.437 -10.126,-0.684 -15.191,-1.021 -0.782,-0.053 -1.559,-0.196 -2.292,-0.293 -0.509,-1.961 0.125,-14.563 1.031,-20.316 z m 21.768,14.298 c 2.315,0 4.094,0 6.227,0 -0.94,-2.63 -1.79,-5.002 -2.639,-7.376 -0.164,0.006 -0.327,0.012 -0.491,0.016 -0.968,2.301 -1.936,4.604 -3.097,7.36 z"
       id="path4401"
       inkscape:connector-curvature="0"
       style="clip-rule:evenodd;fill:#a6b8c1;fill-opacity:1;fill-rule:evenodd" /><path
       d="m 796.4595,508.21365 c 1.509,1.721 1.417,3.842 1.062,5.987 -0.39,2.362 -1.719,3.868 -4.092,3.848 -3.548,-0.033 -7.094,-0.47 -10.636,-0.786 -1.482,-0.131 -2.951,-0.396 -4.759,-0.644 0.782,-6.749 1.543,-13.312 2.334,-20.123 0.787,0 1.394,-0.057 1.986,0.008 3.464,0.374 6.926,0.773 10.387,1.167 0.157,0.021 0.312,0.059 0.467,0.09 5.311,1.062 6.893,5.594 3.46,9.893 -0.09,0.112 -0.109,0.282 -0.209,0.56 z m -12.236,0.661 c -0.131,1.595 -0.23,2.807 -0.343,4.189 2.348,0.311 4.444,0.683 6.557,0.836 1.448,0.104 1.863,-0.468 2.019,-2.026 0.117,-1.189 -0.15,-1.998 -1.541,-2.144 -2.113,-0.221 -4.218,-0.533 -6.692,-0.855 z m 0.418,-3.921 c 2.412,0.27 4.441,0.547 6.479,0.708 1.178,0.093 1.697,-0.674 1.776,-1.777 0.068,-0.935 -0.038,-1.836 -1.172,-1.997 -2.093,-0.299 -4.199,-0.506 -6.506,-0.775 -0.202,1.341 -0.36,2.398 -0.577,3.841 z"
       id="path4403"
       inkscape:connector-curvature="0"
       style="clip-rule:evenodd;fill:#a6b8c1;fill-opacity:1;fill-rule:evenodd" /><path
       d="m 903.9065,510.94565 c 0.223,2.221 0.415,4.162 0.637,6.381 -1.658,0.229 -3.257,0.45 -5.165,0.712 -0.859,-6.845 -1.689,-13.479 -2.56,-20.414 2.096,-0.26 3.87,-0.497 5.648,-0.696 2.677,-0.299 5.352,-0.708 8.035,-0.824 3.753,-0.161 5.356,1.237 6.014,4.939 0.383,2.147 0.565,4.284 -1.204,6.185 2.812,2.093 2.456,5.194 2.76,8.444 -1.698,0.199 -3.283,0.384 -5.044,0.59 -0.199,-1.361 -0.337,-2.448 -0.52,-3.524 -0.35,-2.075 -0.976,-2.638 -3.006,-2.479 -1.791,0.141 -3.57,0.43 -5.595,0.686 z m -0.659,-4.42 c 2.477,0.202 4.707,-0.209 6.9,-0.791 1.54,-0.409 1.406,-1.737 1.284,-2.919 -0.116,-1.107 -0.316,-2.391 -1.766,-2.397 -2.331,-0.011 -4.654,0.235 -7.06,0.918 0.227,1.835 0.427,3.446 0.642,5.189 z"
       id="path4405"
       inkscape:connector-curvature="0"
       style="clip-rule:evenodd;fill:#a6b8c1;fill-opacity:1;fill-rule:evenodd" /><path
       d="m 856.3585,507.77665 c -1.505,0 -3.043,0 -4.714,0 -0.111,-0.564 -0.241,-1.084 -0.311,-1.613 -0.142,-1.041 -0.753,-1.544 -1.766,-1.558 -1.506,-0.021 -3.021,-0.097 -4.521,0.021 -1.663,0.13 -2.463,0.907 -2.527,2.601 -0.089,2.376 -0.07,4.766 0.087,7.137 0.112,1.711 0.864,2.328 2.579,2.578 0.547,0.079 1.109,0.081 1.664,0.091 4.098,0.071 4.195,0 5.23,-3.968 1.487,0 3.02,0 4.61,0 0.601,2.182 0.256,4.094 -0.881,5.795 -0.443,0.663 -1.251,1.307 -2.011,1.501 -4.05,1.033 -8.169,1.109 -12.27,0.322 -2.053,-0.396 -3.57,-1.79 -3.759,-3.823 -0.337,-3.609 -0.525,-7.271 -0.298,-10.882 0.188,-3.004 2.201,-4.955 5.256,-5.263 2.828,-0.286 5.712,-0.447 8.538,-0.224 4.136,0.325 5.812,2.854 5.094,7.285 z"
       id="path4407"
       inkscape:connector-curvature="0"
       style="clip-rule:evenodd;fill:#a6b8c1;fill-opacity:1;fill-rule:evenodd" /><path
       d="m 846.8165,346.17965 c 0.269,-6.34 0.543,-12.678 0.797,-19.017 0.064,-1.622 0.654,-2.818 2.114,-3.72 4.928,-3.039 9.8,-6.169 14.68,-9.288 1.435,-0.917 2.86,-1.183 4.505,-0.51 2.052,0.838 4.215,1.418 6.247,2.298 4.479,1.938 7.693,4.965 8.339,10.124 0.629,5.013 0.981,9.993 -1.617,14.619 -0.518,0.921 -1.312,1.792 -2.18,2.394 -9.195,6.367 -18.429,12.675 -27.656,18.996 -0.653,0.448 -1.299,0.93 -2.009,1.274 -1.306,0.634 -2.14,0.214 -2.362,-1.237 -0.24,-1.566 -0.458,-3.151 -0.488,-4.731 -0.07,-3.73 -0.021,-7.461 -0.021,-11.191 -0.118,-0.005 -0.232,-0.009 -0.349,-0.011 z"
       id="path4425"
       inkscape:connector-curvature="0"
       style="clip-rule:evenodd;fill:#a6b8c1;fill-opacity:1;fill-rule:evenodd" /></g></svg>