<?xml version="1.0" encoding="UTF-8" standalone="no"?>
<!-- Created with Inkscape (http://www.inkscape.org/) -->

<svg
   xmlns:dc="http://purl.org/dc/elements/1.1/"
   xmlns:cc="http://creativecommons.org/ns#"
   xmlns:rdf="http://www.w3.org/1999/02/22-rdf-syntax-ns#"
   xmlns:svg="http://www.w3.org/2000/svg"
   xmlns="http://www.w3.org/2000/svg"
   xmlns:sodipodi="http://sodipodi.sourceforge.net/DTD/sodipodi-0.dtd"
   xmlns:inkscape="http://www.inkscape.org/namespaces/inkscape"
   id="svg4636"
   version="1.1"
   inkscape:version="0.91 r13725"
   width="441.80057"
   height="269.72433"
   viewBox="0 0 441.80057 269.72434"
   sodipodi:docname="1064.svg">
  <metadata
     id="metadata4642">
    <rdf:RDF>
      <cc:Work
         rdf:about="">
        <dc:format>image/svg+xml</dc:format>
        <dc:type
           rdf:resource="http://purl.org/dc/dcmitype/StillImage" />
        <dc:title></dc:title>
      </cc:Work>
    </rdf:RDF>
  </metadata>
  <defs
     id="defs4640" />
  <sodipodi:namedview
     pagecolor="#ffffff"
     bordercolor="#666666"
     borderopacity="1"
     objecttolerance="10"
     gridtolerance="10"
     guidetolerance="10"
     inkscape:pageopacity="0"
     inkscape:pageshadow="2"
     inkscape:window-width="1920"
     inkscape:window-height="1052"
     id="namedview4638"
     showgrid="false"
     fit-margin-top="40"
     fit-margin-left="40"
     fit-margin-right="40"
     fit-margin-bottom="40"
     inkscape:zoom="2.0489017"
     inkscape:cx="229.71049"
     inkscape:cy="133.56387"
     inkscape:window-x="1366"
     inkscape:window-y="0"
     inkscape:window-maximized="1"
     inkscape:current-layer="svg4636" />
  <path
     style="fill:#a6b8c1;fill-opacity:1;stroke:none"
     d="m 40.000816,229.3468 c 0.12384,-0.20632 30.29256,-39.88354 67.041594,-88.17159 42.251,-55.51761 67.09985,-88.41554 67.58733,-89.48035 1.65584,-3.61678 5.56986,-8.18211 9.09829,-10.61224 L 185.29995,40 l 2.65568,0.31975 c 1.46064,0.17586 4.52598,0.40864 6.81191,0.51729 4.83992,0.23003 5.51352,0.49625 9.08769,3.59159 1.17711,1.01941 3.23654,2.70327 4.57652,3.74194 l 2.43633,1.8885 0,9.24591 0,9.24587 -5.24094,4.21007 -5.24098,4.21008 -6.09011,0 -6.09011,0 -5.95074,4.8016 -5.95075,4.8016 -4.50714,0 c -4.36979,0 -4.5343,-0.0228 -5.39877,-0.75025 -1.02427,-0.86189 -1.92649,-0.9506 -2.87949,-0.28309 -0.79244,0.55504 -0.89685,1.96947 -0.18879,2.55713 0.77486,0.64305 2.51949,0.49648 3.13475,-0.26337 0.5117,-0.63192 0.74674,-0.66022 5.48313,-0.66022 l 4.9485,0 5.79091,-4.65155 5.79091,-4.65155 6.05932,0 6.05932,0 5.43559,-4.35713 5.43559,-4.35715 0,-9.2974 c 0,-5.11358 0.10957,-9.29743 0.2435,-9.29743 0.13394,0 0.53907,0.27534 0.9003,0.61191 0.65101,0.60647 0.6568,0.70268 0.6568,10.9065 l 0,10.29463 -3.15105,2.49507 -3.15105,2.49506 0,15.07964 0,15.0796 -6.45215,5.1583 -6.45215,5.1583 0,11.22545 0,11.22546 -0.70373,0 c -0.83971,0 -1.69707,0.8602 -1.69707,1.7027 0,1.40189 2.39318,2.16337 3.45667,1.09984 0.36979,-0.36978 0.44034,-0.73791 0.27321,-1.42547 -0.12394,-0.50981 -0.27282,-5.99111 -0.3308,-12.18068 l -0.10545,-11.25375 6.30585,-5.06238 6.30582,-5.06236 0,-15.07223 0,-15.07222 3.15105,-2.49506 3.15105,-2.49507 0,-10.47886 0,-10.47883 1.27543,0.70346 1.27542,0.7035 0.0621,12.44839 0.0621,12.44836 -2.98803,2.38408 -2.98804,2.38412 0,18.09114 0,18.09114 -3.88494,3.08263 -3.88495,3.08259 -0.0327,17.25576 -0.0327,17.25575 -6.57906,5.25175 -6.5791,5.25175 -0.007,5.4063 -0.007,5.40634 -4.33479,3.44662 -4.3348,3.44664 -0.0168,4.97851 -0.0165,4.97851 -0.74197,0.33807 c -0.40807,0.18594 -0.83095,0.69254 -0.9397,1.12582 -0.43842,1.74679 2.3454,2.81182 3.52903,1.35012 0.72069,-0.89 0.70019,-1.0977 -0.19681,-1.9947 -0.7375,-0.7375 -0.75025,-0.83161 -0.75025,-5.53193 l 0,-4.78167 4.35145,-3.48923 4.35145,-3.48921 0.0177,-5.44504 0.0177,-5.44505 6.58348,-5.25175 6.5835,-5.25175 0,-17.17416 0,-17.17412 3.88495,-3.08263 3.88494,-3.0826 0.0165,-18.15605 0.0165,-18.15605 3.0007,-2.37175 3.00073,-2.37175 0,-12.25813 c 0,-8.2851 0.10114,-12.25813 0.31205,-12.25813 0.17162,0 0.84685,0.27282 1.5005,0.60629 l 1.18845,0.6063 0,11.03077 0,11.03078 -0.9003,0.79002 c -1.05284,0.92385 -1.12864,1.5161 -0.3001,2.34465 1.11193,1.11193 3.6012,0.3859 3.6012,-1.05035 0,-0.5063 -1.04023,-1.65055 -1.5005,-1.65055 -0.19464,0 -0.3001,-3.9013 -0.3001,-11.10371 0,-6.10703 0.0719,-11.1037 0.15969,-11.1037 0.0878,0 0.62802,0.19567 1.2004,0.43485 l 1.04071,0.43481 0,2.98168 0,2.98167 2.38871,1.91026 2.38868,1.91028 0.01,6.60221 0.01,6.6022 -3.89893,3.10051 -3.8989,3.10048 0,11.03222 0,11.03222 -4.05135,3.66227 -4.05135,3.66224 0,14.95945 0,14.95942 5.1017,4.08823 5.1017,4.08823 -0.007,7.57219 -0.007,7.57215 -0.96881,0.45015 c -0.82039,0.38119 -0.96885,0.61047 -0.96885,1.49645 0,0.85748 0.15635,1.12123 0.86627,1.46152 0.75253,0.36066 0.99885,0.35199 1.87563,-0.0661 0.80231,-0.38257 1.00935,-0.65944 1.00935,-1.34973 0,-0.47761 -0.20256,-1.03652 -0.45015,-1.242 -0.37866,-0.31426 -0.45297,-1.64269 -0.46788,-8.36451 l -0.0177,-7.99094 -5.08183,-4.05135 -5.08181,-4.05135 -0.003,-14.61001 -0.003,-14.61004 3.9013,-3.51367 3.9013,-3.51369 0,-11.00695 0,-11.00698 4.05135,-3.26469 4.05135,-3.26473 0,-6.94432 0,-6.94431 -2.55085,-2.02151 -2.55085,-2.0215 0,-2.52843 c 0,-2.81689 -9e-5,-2.8168 2.17573,-2.21255 l 1.12537,0.31252 0,2.67251 0,2.67251 3.3011,2.90638 3.3011,2.90641 0,10.4289 0,10.4289 -3.3011,3.06789 -3.3011,3.06789 0,3.38318 c 0,3.2776 -0.0234,3.39854 -0.75025,3.87477 -0.87563,0.57373 -1.02256,1.97886 -0.27207,2.60175 0.61614,0.51131 2.32881,0.51131 2.94494,0 0.75049,-0.62289 0.60356,-2.02802 -0.27207,-2.60175 -0.72312,-0.4738 -0.75025,-0.60803 -0.75025,-3.71206 l 0,-3.22046 3.15105,-2.92201 3.15105,-2.92202 0,-11.04278 0,-11.04281 -3.15105,-2.75873 -3.15105,-2.75873 0,-2.37892 c 0,-2.33745 0.0132,-2.37893 0.75025,-2.37893 0.71568,0 0.75025,0.0818 0.75025,1.77437 l 0,1.77441 3.75125,3.3417 3.75125,3.34173 0,9.53442 0,9.53445 4.65155,3.96213 4.65155,3.9621 0,5.96749 0,5.96746 -7.03734,4.90472 -7.03738,4.90468 -0.008,18.60621 -0.008,18.6062 5.23356,4.2014 5.23357,4.2014 0.0114,11.73136 0.0114,11.73139 -5.25175,3.49965 -5.25175,3.49965 0,11.50637 c 0,11.12528 -0.0198,11.52441 -0.6002,12.04959 -0.77741,0.70355 -0.78848,2.12888 -0.0198,2.54029 0.85813,0.45927 2.3111,0.37719 2.84924,-0.16092 0.94054,-0.94054 0.39187,-2.39408 -1.10395,-2.92453 -0.48736,-0.17283 -0.52518,-0.98628 -0.52518,-11.29535 l 0,-11.10907 5.4018,-3.60927 5.4018,-3.60928 -0.003,-12.075 -0.003,-12.07498 -5.00188,-4.05135 c -2.75105,-2.22824 -5.18216,-4.23087 -5.40247,-4.45027 -0.32683,-0.32549 -0.38631,-3.69295 -0.32317,-18.29602 l 0.0774,-17.8971 6.97733,-4.90961 6.97732,-4.9096 0,-6.57919 0,-6.57915 -4.49645,-3.8264 -4.49646,-3.82642 -0.0255,-9.6032 -0.0255,-9.60321 -3.73075,-3.27016 -3.73076,-3.27019 0,-1.45638 0,-1.45642 1.03478,0 c 0.88133,0 1.8602,0.65647 6.60043,4.42648 l 5.56562,4.42647 0.003,8.60114 0.003,8.60114 3.73664,2.95271 3.73664,2.95272 0.0195,13.2044 0.0195,13.2044 5.08858,4.05135 5.08859,4.05135 0.008,9.10987 0.008,9.10987 -0.75025,0.59015 c -0.88416,0.69545 -0.97119,1.75411 -0.20146,2.4507 1.01644,0.91987 3.22187,0.45895 3.3673,-0.70373 0.13316,-1.06446 -0.0606,-1.53423 -0.76504,-1.85522 l -0.75025,-0.34181 0,-9.35142 0,-9.35139 -5.08751,-4.02989 -5.08748,-4.02993 -0.0189,-13.2044 -0.0189,-13.2044 -3.74399,-3.001 -3.74401,-3.001 -0.003,-8.57428 -0.003,-8.57431 -4.75592,-3.79407 c -5.72714,-4.57356 -5.86432,-4.7159 -4.53874,-4.7159 0.80396,0 1.87037,0.7164 6.03876,4.05673 l 5.06236,4.05669 0,7.44407 0,7.44407 4.57652,3.65246 4.57653,3.65246 6.26035,0.003 6.26033,0.003 6.70213,5.4018 6.70211,5.4018 7.0025,0 c 6.63116,0 7.02979,0.0318 7.51646,0.6002 0.99327,1.16007 3.52077,0.42722 3.52077,-1.02085 0,-1.55554 -2.40452,-2.27653 -3.6012,-1.07985 -0.56488,0.56488 -1.00032,0.6002 -7.3998,0.6002 l -6.79961,0 -6.69031,-5.4018 -6.69031,-5.4018 -6.27515,0 -6.27518,0 -4.24003,-3.37613 -4.24005,-3.37612 -0.0177,-7.5025 -0.0177,-7.5025 -4.74981,-3.75126 c -2.6124,-2.06318 -4.70277,-3.8335 -4.64525,-3.93401 0.0575,-0.10053 0.83257,-0.26832 1.72231,-0.3729 4.2992,-0.50528 10.13738,-2.88039 15.10358,-6.14446 2.87718,-1.89108 3.15246,-1.97085 6.55332,-1.89864 l 2.1007,0.0446 3.00655,3.07669 c 11.37958,11.64511 54.5719,67.94292 124.00148,161.62635 5.66637,7.64583 10.51728,14.22928 10.77978,14.62988 l 0.47728,0.72843 -181.01254,0 c -144.730074,0 -180.967414,-0.0752 -180.787374,-0.37512 z M 232.33631,218.13629 c -0.64711,-0.64714 -0.0559,-1.38325 1.01104,-1.25883 1.28833,0.15026 1.12981,1.71921 -0.17541,1.73617 -0.19453,0.003 -0.57055,-0.21229 -0.83563,-0.47734 z m -52.07525,-17.67031 c -0.52505,-0.63261 -0.15155,-1.35426 0.70091,-1.35426 0.99394,0 1.59891,0.74509 1.09651,1.35045 -0.47746,0.57529 -1.32164,0.57709 -1.79742,0.004 z m 41.27165,-29.7455 c -0.3721,-0.37212 -0.4028,-0.5773 -0.13475,-0.9003 0.45967,-0.55386 1.17402,-0.53451 1.17402,0.0318 0,0.24758 0.20257,0.45015 0.45015,0.45015 0.59429,0 0.57764,0.48706 -0.0246,0.71814 -0.7131,0.27366 -0.93734,0.22775 -1.46488,-0.29977 z m 39.56612,-25.76245 c -0.25908,-0.67513 0.13843,-1.06472 1.08636,-1.06472 0.97199,0 1.28953,0.31879 1.01923,1.02328 -0.23273,0.60644 -1.87638,0.63879 -2.10559,0.0414 z m -68.42281,-2.7009 c -0.21673,-0.56479 0.10038,-1.06472 0.67534,-1.06472 0.52431,0 1.31132,0.70757 1.31132,1.17897 0,0.49078 -1.79406,0.38764 -1.98666,-0.11425 z m 34.25849,-37.55866 c -0.39715,-0.39715 -0.41411,-0.5638 -0.0965,-0.94706 0.34637,-0.41788 0.39532,-0.41467 0.4825,0.0318 0.0534,0.27327 0.27981,0.49687 0.50317,0.49687 0.22337,0 0.44979,-0.2236 0.50318,-0.49687 0.0872,-0.44649 0.13613,-0.4497 0.4825,-0.0318 0.31766,0.38326 0.3007,0.54991 -0.0965,0.94706 -0.26508,0.26505 -0.66523,0.48193 -0.88923,0.48193 -0.22399,0 -0.62414,-0.21688 -0.88922,-0.48193 z m 69.73523,-5.70259 c -0.34031,-0.41006 -0.31465,-0.54543 0.17067,-0.9003 0.70598,-0.51623 0.80619,-0.51695 1.49825,-0.0108 0.73242,0.53558 0.39658,1.39384 -0.54546,1.39384 -0.39761,0 -0.90315,-0.21718 -1.12346,-0.48262 z M 163.86089,87.32445 c -0.28728,-0.74869 0.12821,-1.35045 0.93241,-1.35045 0.41783,0 0.75968,0.13504 0.75968,0.3001 0,0.16505 -0.13505,0.3001 -0.3001,0.3001 -0.16506,0 -0.3001,0.13504 -0.3001,0.3001 0,0.16505 0.21055,0.3001 0.46785,0.3001 0.25734,0 0.3844,0.13504 0.2824,0.3001 -0.28729,0.46482 -1.64872,0.35394 -1.84214,-0.15005 z m 55.81822,-7.50349 c -0.26586,-0.6929 0.2733,-1.11292 1.2808,-0.99781 0.62892,0.0719 0.86182,0.2607 0.86182,0.6987 0,0.79523 -1.85296,1.05392 -2.14262,0.29911 z"
     id="path5190"
     inkscape:connector-curvature="0" />
</svg>
