<?xml version="1.0" encoding="UTF-8" standalone="no"?>
<!-- Created with Inkscape (http://www.inkscape.org/) -->

<svg
   xmlns:dc="http://purl.org/dc/elements/1.1/"
   xmlns:cc="http://creativecommons.org/ns#"
   xmlns:rdf="http://www.w3.org/1999/02/22-rdf-syntax-ns#"
   xmlns:svg="http://www.w3.org/2000/svg"
   xmlns="http://www.w3.org/2000/svg"
   xmlns:sodipodi="http://sodipodi.sourceforge.net/DTD/sodipodi-0.dtd"
   xmlns:inkscape="http://www.inkscape.org/namespaces/inkscape"
   id="svg5451"
   version="1.1"
   inkscape:version="0.91 r13725"
   width="777.64038"
   height="1007.0909"
   viewBox="0 0 777.64038 1007.0909"
   sodipodi:docname="caltech.svg"
   inkscape:export-filename="/home/woot/Documents/squiffles/lib/img/caltech.png"
   inkscape:export-xdpi="11.438889"
   inkscape:export-ydpi="11.438889">
  <metadata
     id="metadata5457">
    <rdf:RDF>
      <cc:Work
         rdf:about="">
        <dc:format>image/svg+xml</dc:format>
        <dc:type
           rdf:resource="http://purl.org/dc/dcmitype/StillImage" />
        <dc:title></dc:title>
      </cc:Work>
    </rdf:RDF>
  </metadata>
  <defs
     id="defs5455" />
  <sodipodi:namedview
     pagecolor="#ffffff"
     bordercolor="#666666"
     borderopacity="1"
     objecttolerance="10"
     gridtolerance="10"
     guidetolerance="10"
     inkscape:pageopacity="0"
     inkscape:pageshadow="2"
     inkscape:window-width="1920"
     inkscape:window-height="1052"
     id="namedview5453"
     showgrid="false"
     inkscape:zoom="0.36333333"
     inkscape:cx="-500.08314"
     inkscape:cy="493.65581"
     inkscape:window-x="1366"
     inkscape:window-y="0"
     inkscape:window-maximized="1"
     inkscape:current-layer="svg5451"
     fit-margin-top="40"
     fit-margin-left="40"
     fit-margin-right="40"
     fit-margin-bottom="40" />
  <path
     style="fill:#a6b8c1;fill-opacity:1"
     d="m 470.13668,965.98877 c -160.8126,-15.2661 -299.88243,-101.5418 -374.040571,-232.046 -28.609,-50.34641 -46.43326,-106.65216 -54.13209,-171 -2.61141,-21.82647 -2.62081,-88.6502 -0.0154,-109.5 4.03246,-32.26988 10.34156,-60.05709 20.6616,-91 C 117.84456,196.83177 257.48453,73.759395 421.63668,46.013035 c 31.28843,-5.28863 41.69255,-6.02896 84.5,-6.01278 43.03927,0.0163 55.61425,0.90283 85.34085,6.01669 27.2456,4.68706 47.33011,10.04856 84.90915,22.66624 l 24.25,8.14227 0,10.6578 c 0,12.41196 1.6745,93.851565 2.49222,121.209515 l 0.56043,18.75 -2.4223,0 c -1.33227,0 -7.30662,-2.95994 -13.27633,-6.57765 -13.78514,-8.35395 -39.2146,-20.87563 -55.35402,-27.25678 -76.54245,-30.2631 -150.88747,-33.74932 -223.5,-10.48044 -38.56953,12.3597 -75.04741,32.79939 -108,60.51574 -11.82836,9.9488 -36.00072,34.77616 -45.85977,47.10243 -38.88752,48.61908 -65.86672,107.98349 -75.53099,166.1967 -3.54752,21.36864 -4.4213,34.66778 -3.81006,57.99039 0.63152,24.09697 2.69832,40.79185 7.86235,63.50961 23.77491,104.59114 97.51971,192.77941 196.33847,234.7928 28.41586,12.0812 54.2653,19.3824 88,24.8558 15.13944,2.4563 19.62667,2.76 41,2.7751 20.99304,0.015 26.12993,-0.3126 41,-2.6127 47.07434,-7.2814 81.29903,-19.05 121,-41.60729 11.73569,-6.66798 38.33274,-24.22371 51.258,-33.83351 6.1919,-4.60361 12.1544,-8.3702 13.25,-8.3702 1.7092,0 1.9925,0.67425 1.9957,4.75 0,5.2973 -10.7821,148.965 -11.5508,153.8519 -0.4457,2.8331 -1.4182,3.5429 -11.22043,8.1895 -49.64278,23.5323 -95.53379,36.9533 -149.73247,43.7898 -17.66786,2.2285 -75.50066,2.8159 -95,0.9648 z m -2.78864,-185.54909 c -3.18376,-0.40748 -5.96696,-0.91918 -6.18491,-1.13712 -0.21794,-0.21795 0.23503,-12.76306 1.00659,-27.87803 0.77157,-15.11497 1.41728,-28.47692 1.43491,-29.69322 0.0258,-1.78294 -0.79146,-2.41059 -4.21795,-3.23917 -19.41326,-4.69445 -49.65556,-14.80726 -77.75,-25.99905 -23.41883,-9.3292 -53.36208,-25.49898 -75.49612,-40.76898 -10.39824,-7.17362 -12.35615,-9.7495 -11.12848,-14.64091 l 0.6627,-2.64043 200.48095,0 200.48095,0 0,4.36364 c 0,5.59518 -1.53636,7.14104 -18.42699,18.54082 -16.00136,10.7996 -31.45373,19.75383 -46.04208,26.68014 -14.92349,7.08541 -46.14384,19.62351 -62.03093,24.91163 -11.48903,3.82419 -33.82954,9.47701 -37.62041,9.51908 -3.9331,0.0437 -3.96556,0.45796 -2.42939,31.00492 0.81276,16.16184 1.30477,29.55813 1.09336,29.76954 -1.97484,1.97484 -50.64262,2.8952 -63.8322,1.20714 z m 7.65694,-161.38625 c -64.60839,-40.81916 -98.08203,-77.50778 -109.08317,-119.56009 -3.39845,-12.99074 -4.26186,-36.21191 -1.85952,-50.01147 3.02147,-17.35599 9.42186,-33.11416 21.15169,-52.07684 5.37275,-8.6857 12.53755,-18.47858 36.55405,-49.96226 16.28584,-21.3494 26.28471,-36.43231 33.53356,-50.58403 4.81409,-9.39841 6.22879,-11.39381 8.08509,-11.40383 2.1555,-0.0116 2.25,0.34021 2.25,8.37739 0,21.3839 -6.32406,40.98039 -27.80959,86.17412 -15.70069,33.0256 -20.01773,46.14576 -20.70849,62.93635 -0.22627,5.5 -0.17375,9.1 0.11671,8 5.36799,-20.32894 12.82434,-35.08892 35.86731,-71 26.4786,-41.26528 35.96117,-60.53024 41.1802,-83.66237 2.13153,-9.4475 2.11002,-28.57694 -0.0442,-39.33763 -0.88086,-4.4 -1.60164,-9.4625 -1.60174,-11.25 -1.4e-4,-2.75986 0.36015,-3.25 2.38905,-3.25 3.83158,0 6.15374,2.78203 12.52049,15 13.5166,25.93871 23.12218,54.99816 27.60088,83.5 2.24316,14.27521 3.02969,44.43324 1.56692,60.08033 -2.84647,30.44811 -8.18974,48.704 -28.06165,95.87573 -12.89821,30.61762 -18.10717,49.56904 -19.93933,72.54394 -0.95639,11.99294 -0.11079,24.30066 2.30161,33.5 1.25094,4.77027 1.33636,4.14998 1.85924,-13.5 0.87119,-29.40751 4.3221,-40.39171 28.27533,-90 25.68099,-53.18658 32.60153,-75.26989 34.46883,-109.98951 1.75028,-32.5438 -3.09873,-60.17168 -15.07624,-85.89891 -2.14795,-4.61364 -3.90533,-9.67614 -3.90533,-11.25 0,-2.67009 0.26669,-2.86158 3.98538,-2.86158 3.65626,0 4.36203,0.47483 8.54653,5.75 2.50864,3.1625 8.5196,11.6 13.3577,18.75 31.26646,46.20722 52.40963,94.74772 60.76313,139.5 1.34529,7.20709 1.76877,14.56853 1.75457,30.5 -0.0175,19.64173 -0.19323,21.64679 -2.71693,31 -5.67886,21.04668 -19.41339,43.29117 -37.46752,60.68249 -16.98764,16.36399 -42.66181,33.52199 -68.55628,45.81604 -12.14571,5.76648 -12.94462,5.99965 -20.40362,5.95506 l -7.76296,-0.0464 -13.1317,-8.29652 z"
     id="path5461"
     inkscape:connector-curvature="0" />
</svg>
