<?xml version='1.0' encoding='UTF-8'?>
<svg xmlns="http://www.w3.org/2000/svg" height="343.30499" version="1.1" width="729.11902">
  <g fill="none" stroke="#000000" stroke-linecap="round" stroke-width="4">
    <ellipse cx="671.919" cy="185.032" rx="18.296" ry="24.717" />
    <line x1="654.461" x2="663.227" y1="305.148" y2="245.808" />
    <line x1="663.227" x2="700.843" y1="245.808" y2="218.033" />
    <line x1="700.843" x2="727.619" y1="218.033" y2="248.648" />
    <line x1="672.177" x2="663.227" y1="209.75" y2="245.808" />
    <line x1="727.598" x2="700.832" y1="109.355" y2="146.007" />
    <line x1="700.832" x2="687.461" y1="146.007" y2="171.988" />
    <line x1="700.843" x2="700.832" y1="218.033" y2="146.007" />
    <line x1="687.461" x2="700.843" y1="198.083" y2="218.033" />
    <line x1="700.832" x2="663.209" y1="146.007" y2="122.781" />
    <line x1="663.209" x2="654.425" y1="122.781" y2="61.565" />
    <line x1="663.209" x2="672.177" y1="122.781" y2="160.314" />
    <line x1="663.209" x2="623.675" y1="122.781" y2="148.836" />
    <line x1="623.675" x2="623.686" y1="148.836" y2="224.534" />
    <line x1="623.686" x2="663.227" y1="224.534" y2="245.808" />
    <line x1="655.668" x2="623.675" y1="173.676" y2="148.836" />
    <line x1="655.668" x2="623.686" y1="196.391" y2="224.534" />
    <line x1="169.54" x2="1.5" y1="85.924" y2="29.273" />
    <line x1="1.5" x2="1.534" y1="29.273" y2="298.795" />
    <line x1="1.534" x2="129.179" y1="298.795" y2="251.122" />
    <line x1="253.692" x2="371.105" y1="251.456" y2="341.805" />
    <line x1="371.105" x2="573.713" y1="341.805" y2="265.02" />
    <line x1="573.713" x2="623.686" y1="265.02" y2="224.534" />
    <line x1="1.517" x2="114.303" y1="164.033" y2="109.066" />
    <line x1="114.303" x2="114.32" y1="109.066" y2="245.552" />
    <line x1="114.32" x2="1.517" y1="245.552" y2="164.033" />
    <line x1="1.534" x2="114.32" y1="298.795" y2="245.552" />
    <line x1="114.32" x2="573.713" y1="245.552" y2="265.02" />
    <line x1="573.713" x2="654.461" y1="265.02" y2="305.148" />
    <line x1="114.303" x2="253.692" y1="109.066" y2="251.456" />
    <line x1="253.692" x2="393.876" y1="251.456" y2="110.424" />
    <line x1="393.876" x2="573.713" y1="110.424" y2="265.02" />
    <line x1="573.713" x2="573.69" y1="265.02" y2="111.304" />
    <line x1="573.69" x2="623.675" y1="111.304" y2="148.836" />
    <line x1="654.425" x2="371.058" y1="61.565" y2="1.5" />
    <line x1="371.058" x2="114.303" y1="1.5" y2="109.066" />
    <line x1="371.058" x2="393.876" y1="1.5" y2="110.424" />
    <line x1="573.69" x2="371.058" y1="111.304" y2="1.5" />
    <line x1="1.5" x2="114.303" y1="29.273" y2="109.066" />
    <line x1="114.303" x2="573.69" y1="109.066" y2="111.304" />
    <line x1="573.69" x2="654.425" y1="111.304" y2="61.565" />
    <line x1="654.425" x2="727.598" y1="61.565" y2="109.355" />
    <line x1="727.598" x2="727.619" y1="109.355" y2="248.648" />
    <line x1="727.619" x2="654.461" y1="248.648" y2="305.148" />
    <line x1="654.461" x2="371.105" y1="305.148" y2="341.805" />
    <line x1="371.105" x2="114.32" y1="341.805" y2="245.552" />
  </g>
</svg>
